<?xml version="1.0" encoding="utf-8"?>
<svg class="svg--sprites" xmlns="http://www.w3.org/2000/svg" xmlns:xlink="http://www.w3.org/1999/xlink">
    <symbol id="svg--raven" preserveAspectRatio="xMidYMid meet" viewBox="0 0 640 640">
        <title>Corvus</title>
        <path d="m62.7 499.53c0 17.3-14.05 31.35-31.35 31.35s-31.35-14.05-31.35-31.35c0-17.31 14.05-31.35 31.35-31.35s31.35 14.04 31.35 31.35z"/>
        <path d="m196.42 31.35c0 17.3-14.05 31.35-31.35 31.35-17.31 0-31.35-14.05-31.35-31.35s14.04-31.35 31.35-31.35c17.3 0 31.35 14.05 31.35 31.35z"/>
        <path d="m469.12 94.05c0 17.31-14.05 31.36-31.35 31.36s-31.35-14.05-31.35-31.36c0-17.3 14.05-31.35 31.35-31.35s31.35 14.05 31.35 31.35z"/>
        <path d="m640 608.65c0 17.3-14.05 31.35-31.35 31.35s-31.35-14.05-31.35-31.35 14.05-31.35 31.35-31.35 31.35 14.05 31.35 31.35z"/>
        <path d="m589.05 406.49c0 17.3-14.04 31.35-31.35 31.35-17.3 0-31.35-14.05-31.35-31.35 0-17.31 14.05-31.35 31.35-31.35 17.31 0 31.35 14.04 31.35 31.35z"/>
    </symbol>
</svg>
